<svg id="Layer_1" data-name="Layer 1" xmlns="http://www.w3.org/2000/svg" xmlns:xlink="http://www.w3.org/1999/xlink" width="353.07" height="349" viewBox="0 0 353.07 349">
  <defs>
    <clipPath id="clip-path" transform="translate(-223 -226)">
      <circle cx="404.59" cy="404.13" r="149.95" style="fill: none"/>
    </clipPath>
  </defs>
  <title>Untitled-1</title>
  <g style="clip-path: url(#clip-path)">
    <ellipse cx="181.51" cy="181.42" rx="171.56" ry="167.58" style="fill: #69899e"/>
    <polygon points="239.24 13.84 245.17 97.85 288.42 133.72 289.69 47.99 239.24 13.84" style="fill: #8bb3c9"/>
    <polygon points="302.7 64.15 333.49 145.36 317.32 197.91 288.42 133.72 289.69 47.99 302.7 64.15" style="fill: #507087"/>
    <polygon points="139.96 89.33 203.42 47.99 245.17 97.85 139.96 89.33" style="fill: #80aabc"/>
    <polygon points="192.56 6.44 203.42 47.99 245.17 97.85 239.24 13.84 192.56 6.44" style="fill: #8bb3c9"/>
    <polygon points="39.77 47.99 139.96 89.33 148.32 169.68 0 153.15 39.77 47.99" style="fill: #7ea2ba"/>
    <polygon points="203.42 159.64 205.5 133.72 229.68 176.71 203.42 159.64" style="fill: #3a5866"/>
    <polygon points="50.74 186.01 0 153.15 148.86 169.58 91.44 180.04 50.74 186.01" style="fill: #7ea2ba"/>
    <polygon points="189.63 297.04 259.47 330.74 297.46 304.93 205.5 248.59 189.63 297.04" style="fill: #3a5866"/>
    <polygon points="136.59 220.73 185.88 224.28 205.5 248.59 171.04 245.88 136.59 220.73" style="fill: #456477"/>
    <polygon points="50.74 186.01 91.44 238.2 171.04 245.88 136.59 220.73 50.74 186.01" style="fill: #517188"/>
    <polygon points="205.5 248.59 91.44 238.2 189.63 297.04 205.5 248.59" style="fill: #47687c"/>
    <polygon points="189.63 297.04 228.24 303.4 284.11 331.09 91.44 328.31 189.63 297.04" style="fill: #47687c"/>
    <polygon points="91.44 238.2 46.33 290.9 91.44 328.31 189.63 297.04 91.44 238.2" style="fill: #69899e"/>
    <polygon points="50.74 186.01 18.08 264.46 46.33 290.9 91.44 238.2 50.74 186.01" style="fill: #7ea2ba"/>
    <polygon points="305.44 91.51 288.42 133.72 288.17 184.33 333.49 243.5 333.49 153.15 305.44 91.51" style="fill: #69899e"/>
    <polygon points="139.96 89.33 203.42 47.99 196.88 8.44 132.13 0 49.26 44.31 58.87 55.87 139.96 89.33" style="fill: #9dc4d6"/>
    <polygon points="2.85 152.65 9.95 101.53 49.26 44.31 58.87 55.87 139.96 89.33 64.71 130 55.27 159.05 2.85 152.65" style="fill: #8fbccc"/>
    <polygon points="50.74 186.01 50.26 229.5 59.92 275.03 56.21 279.36 29.06 269.23 21.01 248.59 27.54 240.42 50.74 186.01" style="fill: #7ea2ba"/>
    <polygon points="2.85 152.65 2.85 187.31 21.01 248.59 27.54 240.42 50.74 186.01 55.27 159.05 2.85 152.65" style="fill: #8bb3c9"/>
    <polygon points="185.88 224.28 222.12 224.28 203.42 159.64 229.68 176.71 318.51 255.08 289.03 299.69 241.4 269.23 205.5 248.59 185.88 224.28" style="fill: #517188"/>
    <polygon points="336.37 184.6 295.21 193.52 318.51 255.08 336.83 214.45 336.37 184.6" style="fill: #7ea2ba"/>
    <polygon points="205.5 133.72 295.21 193.52 318.51 255.08 229.68 176.71 205.5 133.72" style="fill: #5c7c8e"/>
  </g>
</svg>
