<svg data-name="Layer 1" xmlns="http://www.w3.org/2000/svg" width="257.5" height="254.62" viewBox="0 0 257.5 254.62">
    <defs>
        <clipPath id="a" transform="translate(-271.41 -272.63)">
            <circle cx="394.81" cy="390.96" r="98.42" transform="rotate(-89.51 394.815 390.963)" fill="none"/>
        </clipPath>
    </defs>
    <title>
        Untitled-4
    </title>
    <g clip-path="url(#a)">
        <circle cx="395.13" cy="390.7" r="98.42" transform="rotate(-89.51 121.945 391.256)" fill="#9abdcc"/>
        <path fill="#47687c" d="M26.17 190.02l82.33-55.88 63.85-101.85-72.16-30.02L7.4 41.76l13.24 104.52 5.53 43.74z"/>
        <path fill="#83aeba" d="M177.54 123.09l-45.59-26.36 43.28-74.68 82.27 54.89-79.96 46.15z"/>
        <path fill="#8fb6c1" d="M143.96 76.02l33.58 47.07-69.04 11.05 35.46-58.12z"/>
        <path fill="#9fc8d3" d="M227.99 91.27l-6.61 78.46-39.12 27.21-4.72-73.85 50.45-31.82z"/>
        <path fill="#8fb6c1" d="M204.55 216.79l-96.05-82.65-29.93 20.32 4.96 100.16 121.02-37.83z"/>
        <path fill="#205775" d="M90.89 126.67l-65.84 18.67L0 41.69 100.19 2.27l-9.3 124.4z"/>
        <path fill="#80aabc" d="M82.76 207.99l-4.19-53.53-34.23 23.23v20.45l38.42 9.85z"/>
        <path fill="#28627c" d="M1.99 40.9l88.9 85.77L102.29 0 1.99 40.9z"/>
        <path fill="#5c7c8e" d="M183 9.96l-84.12 9.96-7.09 77.97 52.17-21.87L183 9.96z"/>
    </g>
</svg>
