<svg data-name="Layer 1" xmlns="http://www.w3.org/2000/svg" width="353.07" height="349" viewBox="0 0 353.07 349">
    <defs>
        <clipPath id="a" transform="translate(-223 -226)">
            <circle cx="404.59" cy="404.13" r="149.95" fill="none"/>
        </clipPath>
    </defs>
    <title>
        Untitled-1
    </title>
    <g clip-path="url(#a)">
        <ellipse cx="181.51" cy="181.42" rx="171.56" ry="167.58" fill="#69899e"/>
        <path fill="#8bb3c9" d="M239.24 13.84l5.93 84.01 43.25 35.87 1.27-85.73-50.45-34.15z"/>
        <path fill="#507087" d="M302.7 64.15l30.79 81.21-16.17 52.55-28.9-64.19 1.27-85.73 13.01 16.16z"/>
        <path fill="#80aabc" d="M139.96 89.33l63.46-41.34 41.75 49.86-105.21-8.52z"/>
        <path fill="#8bb3c9" d="M192.56 6.44l10.86 41.55 41.75 49.86-5.93-84.01-46.68-7.4z"/>
        <path fill="#7ea2ba" d="M39.77 47.99l100.19 41.34 8.36 80.35L0 153.15 39.77 47.99z"/>
        <path fill="#3a5866" d="M203.42 159.64l2.08-25.92 24.18 42.99-26.26-17.07z"/>
        <path fill="#7ea2ba" d="M50.74 186.01L0 153.15l148.86 16.43-57.42 10.46-40.7 5.97z"/>
        <path fill="#3a5866" d="M189.63 297.04l69.84 33.7 37.99-25.81-91.96-56.34-15.87 48.45z"/>
        <path fill="#456477" d="M136.59 220.73l49.29 3.55 19.62 24.31-34.46-2.71-34.45-25.15z"/>
        <path fill="#517188" d="M50.74 186.01l40.7 52.19 79.6 7.68-34.45-25.15-85.85-34.72z"/>
        <path fill="#47687c" d="M205.5 248.59L91.44 238.2l98.19 58.84 15.87-48.45z"/>
        <path fill="#47687c" d="M189.63 297.04l38.61 6.36 55.87 27.69-192.67-2.78 98.19-31.27z"/>
        <path fill="#69899e" d="M91.44 238.2l-45.11 52.7 45.11 37.41 98.19-31.27-98.19-58.84z"/>
        <path fill="#7ea2ba" d="M50.74 186.01l-32.66 78.45 28.25 26.44 45.11-52.7-40.7-52.19z"/>
        <path fill="#69899e" d="M305.44 91.51l-17.02 42.21-.25 50.61 45.32 59.17v-90.35l-28.05-61.64z"/>
        <path fill="#9dc4d6" d="M139.96 89.33l63.46-41.34-6.54-39.55L132.13 0 49.26 44.31l9.61 11.56 81.09 33.46z"/>
        <path fill="#8fbccc" d="M2.85 152.65l7.1-51.12 39.31-57.22 9.61 11.56 81.09 33.46L64.71 130l-9.44 29.05-52.42-6.4z"/>
        <path fill="#7ea2ba" d="M50.74 186.01l-.48 43.49 9.66 45.53-3.71 4.33-27.15-10.13-8.05-20.64 6.53-8.17 23.2-54.41z"/>
        <path fill="#8bb3c9" d="M2.85 152.65v34.66l18.16 61.28 6.53-8.17 23.2-54.41 4.53-26.96-52.42-6.4z"/>
        <path fill="#517188" d="M185.88 224.28h36.24l-18.7-64.64 26.26 17.07 88.83 78.37-29.48 44.61-47.63-30.46-35.9-20.64-19.62-24.31z"/>
        <path fill="#7ea2ba" d="M336.37 184.6l-41.16 8.92 23.3 61.56 18.32-40.63-.46-29.85z"/>
        <path fill="#5c7c8e" d="M205.5 133.72l89.71 59.8 23.3 61.56-88.83-78.37-24.18-42.99z"/>
    </g>
</svg>
