<svg data-name="Layer 1" xmlns="http://www.w3.org/2000/svg" width="176.33" height="193.22" viewBox="0 0 176.33 193.22">
    <defs>
        <clipPath id="a" transform="translate(-311.63 -303.85)">
            <circle cx="399.17" cy="403.21" r="74.17" fill="#b29a76"/>
        </clipPath>
    </defs>
    <title>
        Untitled-3
    </title>
    <circle cx="87.55" cy="99.36" r="74.17" fill="#b29a76"/>
    <g clip-path="url(#a)">
        <path fill="#96745e" d="M87.55 99.36L26 57.96 75.81 0l81.41 29.03-.2 20.33-69.47 50z"/>
        <path fill="#876951" d="M10.49 136.21l50.87 3.71 32.78-51.46-81.79-34.94-1.86 82.69z"/>
        <path fill="#bca280" d="M60.83 139.61L29.1 158.4l51.16 34.82 32.14-19.69-.68-5-50.89-28.92z"/>
        <path fill="#a59375" d="M118.42 112.04l-57.59 27.57 50.89 28.92 6.7-56.49z"/>
        <path fill="#876951" d="M61.36 139.92l57.06-27.88 34.17-60.65-65.04 47.97-26.19 40.56z"/>
        <path fill="#998568" d="M21.18 66.23l29.87 12.24 36.5 20.89 4.19-53.81-4.19-20.35-15.96-4.84-43.02 16.26-7.39 29.61z"/>
        <path fill="#93765c" d="M161.12 124.64l-19.02-2.16-23.68-10.44 28.72-58.1 29.19 15.61-15.21 55.09z"/>
        <path fill="#93765c" d="M46.14 77.61l41.41-55.6 35.44 12.63-35.44 64.72-41.41-21.75z"/>
        <path fill="#a59375" d="M87.55 99.36l-74.17 17.45L0 81.8l22.25-17.64 24.84 12.17 40.46 23.03z"/>
        <path fill="#c9ad8d" d="M31.57 137.65l29.79 2.27-24.23 17.54-19.46-6.96-4.29-14.08 18.19 1.23z"/>
    </g>
</svg>
