<?xml version="1.0" encoding="UTF-8"?><!DOCTYPE svg PUBLIC "-//W3C//DTD SVG 1.1//EN" "http://www.w3.org/Graphics/SVG/1.1/DTD/svg11.dtd"><svg xmlns="http://www.w3.org/2000/svg"><defs>
        <clipPath id="a" transform="translate(-223 -226)">
            <circle cx="404.59" cy="404.13" r="149.95"/>
        </clipPath>
    
        <clipPath id="a" transform="translate(-256.86 -253.19)">
            <circle cx="397.55" cy="418.13" r="128.38"/>
        </clipPath>
    
        <clipPath id="a" transform="translate(-311.63 -303.85)">
            <circle cx="399.17" cy="403.21" r="74.17"/>
        </clipPath>
    
        <clipPath id="a" transform="translate(-271.41 -272.63)">
            <circle cx="394.81" cy="390.96" r="98.42" transform="rotate(-89.51 394.815 390.963)"/>
        </clipPath>
    </defs><symbol id="icon-planet-00" viewBox="0 0 353.07 349">
    
    <title>
        Untitled-1
    </title>
    <g clip-path="url(#a)">
        <ellipse cx="181.51" cy="181.42" rx="171.56" ry="167.58"/>
        <path d="M239.24 13.84l5.93 84.01 43.25 35.87 1.27-85.73-50.45-34.15z"/>
        <path d="M302.7 64.15l30.79 81.21-16.17 52.55-28.9-64.19 1.27-85.73 13.01 16.16z"/>
        <path d="M139.96 89.33l63.46-41.34 41.75 49.86-105.21-8.52z"/>
        <path d="M192.56 6.44l10.86 41.55 41.75 49.86-5.93-84.01-46.68-7.4z"/>
        <path d="M39.77 47.99l100.19 41.34 8.36 80.35L0 153.15 39.77 47.99z"/>
        <path d="M203.42 159.64l2.08-25.92 24.18 42.99-26.26-17.07z"/>
        <path d="M50.74 186.01L0 153.15l148.86 16.43-57.42 10.46-40.7 5.97z"/>
        <path d="M189.63 297.04l69.84 33.7 37.99-25.81-91.96-56.34-15.87 48.45z"/>
        <path d="M136.59 220.73l49.29 3.55 19.62 24.31-34.46-2.71-34.45-25.15z"/>
        <path d="M50.74 186.01l40.7 52.19 79.6 7.68-34.45-25.15-85.85-34.72z"/>
        <path d="M205.5 248.59L91.44 238.2l98.19 58.84 15.87-48.45z"/>
        <path d="M189.63 297.04l38.61 6.36 55.87 27.69-192.67-2.78 98.19-31.27z"/>
        <path d="M91.44 238.2l-45.11 52.7 45.11 37.41 98.19-31.27-98.19-58.84z"/>
        <path d="M50.74 186.01l-32.66 78.45 28.25 26.44 45.11-52.7-40.7-52.19z"/>
        <path d="M305.44 91.51l-17.02 42.21-.25 50.61 45.32 59.17v-90.35l-28.05-61.64z"/>
        <path d="M139.96 89.33l63.46-41.34-6.54-39.55L132.13 0 49.26 44.31l9.61 11.56 81.09 33.46z"/>
        <path d="M2.85 152.65l7.1-51.12 39.31-57.22 9.61 11.56 81.09 33.46L64.71 130l-9.44 29.05-52.42-6.4z"/>
        <path d="M50.74 186.01l-.48 43.49 9.66 45.53-3.71 4.33-27.15-10.13-8.05-20.64 6.53-8.17 23.2-54.41z"/>
        <path d="M2.85 152.65v34.66l18.16 61.28 6.53-8.17 23.2-54.41 4.53-26.96-52.42-6.4z"/>
        <path d="M185.88 224.28h36.24l-18.7-64.64 26.26 17.07 88.83 78.37-29.48 44.61-47.63-30.46-35.9-20.64-19.62-24.31z"/>
        <path d="M336.37 184.6l-41.16 8.92 23.3 61.56 18.32-40.63-.46-29.85z"/>
        <path d="M205.5 133.72l89.71 59.8 23.3 61.56-88.83-78.37-24.18-42.99z"/>
    </g>
</symbol><symbol id="icon-planet-01" viewBox="0 0 287.04 293.31">
    
    <title>
        Untitled-2
    </title>
    <circle cx="140.69" cy="164.93" r="128.38"/>
    <g clip-path="url(#a)">
        <path d="M170.84 25.63l-49.19 67.89 14.51 80.4 4.53 6.14 78.97-22.91 22.53-102.37-71.35-29.15z"/>
        <path d="M287.04 157.15h-67.38l22.53-102.37L287.04 119v38.15z"/>
        <path d="M219.66 157.15l-69 31.35 79.74 21.74c-4-17.58-7.58-35.24-10-53.08h-.74z"/>
        <path d="M287.04 157.15h-66.63c2.41 17.85 6 35.5 10 53.08l38.66 10.58z"/>
        <path d="M209.29 281.53l21.11-71.3 38.67 10.55-8.53 39.59-51.25 21.16z"/>
        <path d="M150.66 188.49l79.74 21.74-19.11 63.33-5.68 19.75-94.03-68.05 10.07-15.56 29.01-21.21z"/>
        <path d="M23.76 110.58L0 180.68l34.32 69.31 53.15-29.21 1.99-9.58-65.7-100.62z"/>
        <path d="M95.81 180.68l-24-77.83-46.47 3.12-1.56 4.61c16.51 36.34 65.7 100.62 65.7 100.62z"/>
        <path d="M140.69 109.64l-68.9-6.79 24.02 77.83 40.35 5.12 83.5-28.65-78.97-47.51z"/>
        <path d="M111.58 20.13l-39.79 82.72-46.47 3.12 3.85-59.34 82.41-26.5z"/>
        <path d="M116.58 0L88.73 67.64l-16.94 35.21 68.9 6.79 24.57-82.41L116.58 0z"/>
        <path d="M34.32 249.99l60.27-73.27 43.41-.3 110.77-31.06-112.61 75.42 9.13 28.88-33.71 43.65-77.26-43.32z"/>
        <path d="M128.63 36.55l27 22.98-14.94 50.11-68.9-6.79 29.11-77.97 27.73 11.67z"/>
        <path d="M155.63 59.53l32.84 38.32 22.82 54.8-70.6-43.01 14.94-50.11z"/>
    </g>
</symbol><symbol id="icon-planet-02" viewBox="0 0 176.33 193.22">
    
    <title>
        Untitled-3
    </title>
    <circle cx="87.55" cy="99.36" r="74.17"/>
    <g clip-path="url(#a)">
        <path d="M87.55 99.36L26 57.96 75.81 0l81.41 29.03-.2 20.33-69.47 50z"/>
        <path d="M10.49 136.21l50.87 3.71 32.78-51.46-81.79-34.94-1.86 82.69z"/>
        <path d="M60.83 139.61L29.1 158.4l51.16 34.82 32.14-19.69-.68-5-50.89-28.92z"/>
        <path d="M118.42 112.04l-57.59 27.57 50.89 28.92 6.7-56.49z"/>
        <path d="M61.36 139.92l57.06-27.88 34.17-60.65-65.04 47.97-26.19 40.56z"/>
        <path d="M21.18 66.23l29.87 12.24 36.5 20.89 4.19-53.81-4.19-20.35-15.96-4.84-43.02 16.26-7.39 29.61z"/>
        <path d="M161.12 124.64l-19.02-2.16-23.68-10.44 28.72-58.1 29.19 15.61-15.21 55.09z"/>
        <path d="M46.14 77.61l41.41-55.6 35.44 12.63-35.44 64.72-41.41-21.75z"/>
        <path d="M87.55 99.36l-74.17 17.45L0 81.8l22.25-17.64 24.84 12.17 40.46 23.03z"/>
        <path d="M31.57 137.65l29.79 2.27-24.23 17.54-19.46-6.96-4.29-14.08 18.19 1.23z"/>
    </g>
</symbol><symbol id="icon-planet-03" viewBox="0 0 257.5 254.62">
    
    <title>
        Untitled-4
    </title>
    <g clip-path="url(#a)">
        <circle cx="395.13" cy="390.7" r="98.42" transform="rotate(-89.51 121.945 391.256)"/>
        <path d="M26.17 190.02l82.33-55.88 63.85-101.85-72.16-30.02L7.4 41.76l13.24 104.52 5.53 43.74z"/>
        <path d="M177.54 123.09l-45.59-26.36 43.28-74.68 82.27 54.89-79.96 46.15z"/>
        <path d="M143.96 76.02l33.58 47.07-69.04 11.05 35.46-58.12z"/>
        <path d="M227.99 91.27l-6.61 78.46-39.12 27.21-4.72-73.85 50.45-31.82z"/>
        <path d="M204.55 216.79l-96.05-82.65-29.93 20.32 4.96 100.16 121.02-37.83z"/>
        <path d="M90.89 126.67l-65.84 18.67L0 41.69 100.19 2.27l-9.3 124.4z"/>
        <path d="M82.76 207.99l-4.19-53.53-34.23 23.23v20.45l38.42 9.85z"/>
        <path d="M1.99 40.9l88.9 85.77L102.29 0 1.99 40.9z"/>
        <path d="M183 9.96l-84.12 9.96-7.09 77.97 52.17-21.87L183 9.96z"/>
    </g>
</symbol></svg>