<svg data-name="Layer 1" xmlns="http://www.w3.org/2000/svg" width="287.04" height="293.31" viewBox="0 0 287.04 293.31">
    <defs>
        <clipPath id="a" transform="translate(-256.86 -253.19)">
            <circle cx="397.55" cy="418.13" r="128.38" fill="#e5a248"/>
        </clipPath>
    </defs>
    <title>
        Untitled-2
    </title>
    <circle cx="140.69" cy="164.93" r="128.38" fill="#e5a248"/>
    <g clip-path="url(#a)">
        <path fill="#f4df89" d="M170.84 25.63l-49.19 67.89 14.51 80.4 4.53 6.14 78.97-22.91 22.53-102.37-71.35-29.15z"/>
        <path fill="#f9e98c" d="M287.04 157.15h-67.38l22.53-102.37L287.04 119v38.15z"/>
        <path d="M219.66 157.15l-69 31.35 79.74 21.74c-4-17.58-7.58-35.24-10-53.08h-.74z" fill="#f9d373"/>
        <path d="M287.04 157.15h-66.63c2.41 17.85 6 35.5 10 53.08l38.66 10.58z" fill="#ffee9c"/>
        <path fill="#f4c887" d="M209.29 281.53l21.11-71.3 38.67 10.55-8.53 39.59-51.25 21.16z"/>
        <path fill="#f9bb4b" d="M150.66 188.49l79.74 21.74-19.11 63.33-5.68 19.75-94.03-68.05 10.07-15.56 29.01-21.21z"/>
        <path fill="#f9bb4b" d="M23.76 110.58L0 180.68l34.32 69.31 53.15-29.21 1.99-9.58-65.7-100.62z"/>
        <path d="M95.81 180.68l-24-77.83-46.47 3.12-1.56 4.61c16.51 36.34 65.7 100.62 65.7 100.62z" fill="#efab59"/>
        <path fill="#f9c764" d="M140.69 109.64l-68.9-6.79 24.02 77.83 40.35 5.12 83.5-28.65-78.97-47.51z"/>
        <path fill="#edcc88" d="M111.58 20.13l-39.79 82.72-46.47 3.12 3.85-59.34 82.41-26.5z"/>
        <path fill="#ffee9c" d="M116.58 0L88.73 67.64l-16.94 35.21 68.9 6.79 24.57-82.41L116.58 0z"/>
        <path fill="#e5a248" d="M34.32 249.99l60.27-73.27 43.41-.3 110.77-31.06-112.61 75.42 9.13 28.88-33.71 43.65-77.26-43.32z"/>
        <path fill="#f4c887" d="M128.63 36.55l27 22.98-14.94 50.11-68.9-6.79 29.11-77.97 27.73 11.67z"/>
        <path fill="#f9d373" d="M155.63 59.53l32.84 38.32 22.82 54.8-70.6-43.01 14.94-50.11z"/>
    </g>
</svg>
